# xmcd
#
# Track frame offsets: 
#        150
#        19614
#        32403
#        47733
#        63271
#        82319
#        98640
#        117770
#        130258
#        145008
#        163313
#        178323
#        194433
#        209235
#        220164
#
# Disc length: 3160 seconds
#
# Revision: 0
# Processed by: cddbd v1.5.2PL0 Copyright (c) Steve Scherf et al.
# Submitted via: ExactAudioCopy v0.99pb4
#
DISCID=de0c560f
DTITLE=Confidentially - Confidentially
DYEAR=2006
DGENRE=Country
TTITLE0=Warm Spanish Wine
TTITLE1=It Takes Me All Night Long
TTITLE2=Why Wasn't It Me
TTITLE3=Run Like The Wind
TTITLE4=Confidentially
TTITLE5=Boogyin' and Woogyin'
TTITLE6=Reckless Wind
TTITLE7=In The Pine
TTITLE8=One Memory At A Time
TTITLE9=American Nights
TTITLE10=Cowboy Hats
TTITLE11=I Ain't Going If There Ain't No Hank
TTITLE12=Distance And Time
TTITLE13=Let The Good Times Roll
TTITLE14=I'm Gonna Hire A Wino
EXTD=
EXTT0=
EXTT1=
EXTT2=
EXTT3=
EXTT4=
EXTT5=
EXTT6=
EXTT7=
EXTT8=
EXTT9=
EXTT10=
EXTT11=
EXTT12=
EXTT13=
EXTT14=
PLAYORDER=
